<?xml version="1.0" encoding="iso-8859-1"?>
<!-- Generator: Adobe Illustrator 19.0.0, SVG Export Plug-In . SVG Version: 6.00 Build 0)  -->
<svg version="1.1" id="Layer_1" xmlns="http://www.w3.org/2000/svg" xmlns:xlink="http://www.w3.org/1999/xlink" x="0px" y="0px"
	 viewBox="0 0 504.131 504.131" style="enable-background:new 0 0 504.131 504.131;" xml:space="preserve">
<circle style="fill:#ED9200;" cx="252.065" cy="252.069" r="252.062"/>
<path style="fill:#EA6F00;" d="M73.834,73.823c98.43-98.43,258.032-98.43,356.462,0c98.43,98.446,98.446,258.032,0,356.478"/>
<path style="fill:#1D2321;" d="M376.883,358.888v-64.843c0-6.601-5.356-11.957-11.957-11.957h-3.71l-18.03-71.373l-10.082-7.845
	h-31.114c4.324-2.355,7.286-6.877,7.286-12.138v-11.264c0-7.664-6.215-13.879-13.871-13.879h-86.678
	c-7.648,0-13.863,6.215-13.863,13.879v11.264c0,5.262,2.954,9.783,7.278,12.138H171.02l-10.075,7.845l-18.03,71.373h-3.702
	c-6.609,0-11.957,5.356-11.957,11.957v64.843c-4.789,0-8.68,3.86-8.68,8.665c0,4.781,3.883,8.665,8.68,8.665h3.033v31.878
	c0,7.357,5.979,13.336,13.344,13.336h16.66c7.365,0,13.336-5.986,13.336-13.336V376.21H330.52v31.878
	c0,7.357,5.963,13.336,13.328,13.336h16.66c7.357,0,13.32-5.986,13.32-13.336V376.21h3.048c4.773,0,8.665-3.875,8.665-8.665
	C385.54,362.748,381.657,358.888,376.883,358.888z M179.133,223.673h145.889l14.746,58.415H164.356L179.133,223.673z"/>
<path style="fill:#363D3B;" d="M376.883,358.888v-64.843c0-6.601-5.356-11.957-11.957-11.957h-3.71l-18.03-71.373l-10.082-7.845
	h-31.114c4.324-2.355,7.286-6.877,7.286-12.138v-11.264c0-7.664-6.215-13.879-13.871-13.879h-86.678
	c-7.648,0-13.863,6.215-13.863,13.879v11.264c0,5.262,2.954,9.783,7.278,12.138H171.02l-5.388,4.198l16.589,16.597h142.793
	l14.746,58.415h-99.107l131.797,131.812c0.866-1.772,1.386-3.726,1.386-5.813v-31.87h3.048c4.773,0,8.665-3.875,8.665-8.665
	C385.54,362.748,381.657,358.888,376.883,358.888z"/>
<g>
	<circle style="fill:#ED9200;" cx="165.829" cy="322.914" r="18.637"/>
	<circle style="fill:#ED9200;" cx="338.318" cy="322.914" r="18.629"/>
</g>
<path style="fill:#363D3B;" d="M332.733,84.992H227.749c-5.089-15.336-16.132-25.923-34.714-25.923
	c-26.86,0-48.616,21.772-48.616,48.616s21.756,48.616,48.616,48.616c18.582,0,29.625-10.571,34.714-25.907h16.691l11.091-11.106
	l7.719,7.719l7.727-7.719l7.696,7.719l7.735-7.719l7.711,7.719l7.719-7.719l7.704,7.719l7.735-7.719l7.727,7.719l7.704-7.719
	l6.034,6.049l20.96-17.644L332.733,84.992z M168.35,125.44c-5.561,0-10.051-7.94-10.051-17.755c0-9.799,4.49-17.755,10.051-17.755
	c5.537,0,10.019,7.956,10.019,17.755C178.377,117.5,173.887,125.44,168.35,125.44z"/>
<g>
</g>
<g>
</g>
<g>
</g>
<g>
</g>
<g>
</g>
<g>
</g>
<g>
</g>
<g>
</g>
<g>
</g>
<g>
</g>
<g>
</g>
<g>
</g>
<g>
</g>
<g>
</g>
<g>
</g>
</svg>
